<?xml version="1.0" standalone="no"?>
<!DOCTYPE svg PUBLIC "-//W3C//DTD SVG 20010904//EN"
 "http://www.w3.org/TR/2001/REC-SVG-20010904/DTD/svg10.dtd">
<svg version="1.0" xmlns="http://www.w3.org/2000/svg"
 width="180.000000pt" height="180.000000pt" viewBox="0 0 180.000000 180.000000"
 preserveAspectRatio="xMidYMid meet">

<g transform="translate(0.000000,180.000000) scale(0.100000,-0.100000)"
fill="#000000" stroke="none">
<path d="M105 1783 c-44 -23 -65 -44 -86 -85 -18 -36 -19 -71 -19 -798 0 -727
1 -762 19 -798 22 -42 43 -63 88 -86 29 -14 111 -16 793 -16 727 0 762 1 798
19 42 22 63 43 86 88 14 29 16 111 16 793 0 682 -2 764 -16 793 -23 45 -44 66
-86 88 -36 18 -71 19 -800 19 -677 -1 -766 -3 -793 -17z m335 -368 c0 -48 -16
-65 -64 -65 -14 0 -36 -10 -47 -21 -23 -23 -23 -1 -3 -274 6 -75 4 -83 -20
-117 l-25 -38 25 -37 c24 -35 26 -43 20 -118 -20 -273 -20 -251 3 -274 12 -12
34 -21 50 -21 41 0 61 -24 61 -71 l0 -39 -60 0 c-101 0 -177 54 -201 143 -9
32 -9 62 1 127 24 170 24 196 1 219 -11 11 -30 21 -41 21 -17 0 -20 7 -20 49
0 46 2 49 30 55 51 10 57 38 36 180 -23 158 -13 219 46 273 36 34 88 52 151
53 l57 0 0 -45z m1075 26 c70 -32 115 -104 115 -186 0 -16 -7 -78 -17 -137
-20 -125 -13 -155 37 -164 28 -6 30 -9 30 -54 0 -45 -2 -48 -30 -54 -50 -9
-57 -39 -37 -164 27 -168 20 -223 -37 -282 -39 -42 -87 -60 -157 -60 l-59 0 0
39 c0 46 26 71 72 71 18 0 33 8 44 26 15 21 16 39 9 127 -15 181 -13 228 13
264 l23 32 -23 32 c-26 35 -28 80 -13 270 7 101 7 107 -14 128 -12 12 -34 21
-50 21 -41 0 -61 24 -61 71 l0 39 58 0 c34 0 74 -8 97 -19z m-832 -95 c7 -8
103 -137 213 -287 l199 -274 3 288 2 288 68 -3 67 -3 3 -422 2 -423 -53 0
c-67 0 -54 -14 -287 308 -101 138 -187 252 -192 252 -4 0 -8 -126 -8 -280 l0
-281 -67 3 -68 3 -3 410 c-1 225 0 416 3 422 6 18 100 17 118 -1z"/>
</g>
</svg>
