<?xml version="1.0" standalone="no"?>
<!DOCTYPE svg PUBLIC "-//W3C//DTD SVG 20010904//EN"
 "http://www.w3.org/TR/2001/REC-SVG-20010904/DTD/svg10.dtd">
<svg version="1.0" xmlns="http://www.w3.org/2000/svg"
 width="32.000000pt" height="32.000000pt" viewBox="0 0 32.000000 32.000000"
 preserveAspectRatio="xMidYMid meet">

<g transform="translate(0.000000,32.000000) scale(0.100000,-0.100000)"
fill="#000000" stroke="none">
<path d="M12 308 c-17 -17 -17 -279 0 -296 17 -17 279 -17 296 0 17 17 17 279
0 296 -17 17 -279 17 -296 0z m68 -57 c0 -5 -6 -11 -13 -14 -18 -7 -16 -145 3
-157 8 -5 11 -12 7 -17 -15 -14 -42 14 -43 44 0 16 -4 34 -8 41 -4 7 -4 18 1
25 4 6 6 22 4 35 -1 13 3 30 9 38 14 15 40 19 40 5z m200 -5 c6 -8 10 -25 9
-38 -2 -13 0 -29 4 -35 5 -7 5 -18 1 -25 -4 -7 -8 -25 -8 -41 -1 -30 -28 -58
-43 -44 -4 5 -1 12 7 17 19 12 21 150 3 157 -7 3 -13 9 -13 14 0 14 26 10 40
-5z m-125 -51 c17 -25 33 -45 38 -45 4 0 7 20 7 45 0 25 5 45 10 45 6 0 10
-32 10 -75 0 -44 -4 -75 -10 -75 -6 0 -25 20 -42 45 -18 25 -35 45 -40 45 -4
0 -8 -20 -8 -45 0 -25 -4 -45 -10 -45 -6 0 -10 32 -10 75 0 89 11 95 55 30z"/>
</g>
</svg>
